<svg width="20" height="20" viewBox="0 0 20 20" fill="none" xmlns="http://www.w3.org/2000/svg">
<path d="M0.000115705 14.7295L0.000116119 5.25721C0.000839013 5.05391 0.0826586 4.85913 0.227728 4.71537C0.372797 4.57162 0.569347 4.49055 0.774504 4.48983L9.19939 4.48983L9.19939 0.775426C9.19838 0.621672 9.24418 0.471238 9.3308 0.34367C9.41742 0.216101 9.54083 0.11733 9.68494 0.0603278C9.82905 0.00332544 9.98715 -0.00927393 10.1386 0.0241211C10.2901 0.0575162 10.4278 0.135365 10.534 0.247539L19.3433 9.46681C19.4797 9.60936 19.5557 9.79829 19.5557 9.9947C19.5557 10.1911 19.4797 10.38 19.3433 10.5226L10.5202 19.7419C10.4141 19.854 10.2763 19.9319 10.1249 19.9653C9.97342 19.9987 9.81531 19.986 9.67121 19.929C9.5271 19.872 9.40368 19.7733 9.31707 19.6457C9.23045 19.5182 9.18465 19.3677 9.18565 19.2139L9.18565 15.4968L0.760772 15.4968C0.557781 15.4933 0.364324 15.4108 0.222055 15.2673C0.0797856 15.1238 8.3271e-05 14.9306 0.000115705 14.7295ZM1.54889 6.0218L1.54889 13.9622L9.97377 13.9622C10.1784 13.9622 10.3747 14.0427 10.5194 14.1861C10.6641 14.3295 10.7454 14.5239 10.7454 14.7267L10.7454 17.2901L17.7286 9.98925L10.7454 2.69112L10.7454 5.25176C10.7458 5.35241 10.7261 5.45212 10.6875 5.5452C10.6488 5.63829 10.5921 5.72291 10.5204 5.7942C10.4487 5.86549 10.3635 5.92202 10.2697 5.96062C10.1759 5.99921 10.0753 6.01908 9.97377 6.01908L1.54889 6.0218Z" fill="white"/>
</svg>
