<svg width="37" height="34" viewBox="0 0 37 34" fill="none" xmlns="http://www.w3.org/2000/svg">
<path d="M31.376 13.1535C31.376 8.82261 27.827 5.2992 23.4647 5.2992C22.4574 5.2992 21.4572 5.49196 20.5285 5.8602V2.19111C20.5285 1.26632 19.7703 0.513672 18.8388 0.513672H11.5627C11.2639 0.513672 11.0221 0.754062 11.0221 1.05044C11.0221 1.3471 11.2642 1.58721 11.5627 1.58721H18.8388C19.1741 1.58721 19.4471 1.85824 19.4471 2.19111V6.69112C19.4468 6.69642 19.4468 6.70199 19.4471 6.70728V9.25743C19.4471 9.59057 19.1741 9.86133 18.8388 9.86133H15.3334C15.0898 9.86133 14.8609 9.95548 14.6883 10.1265L13.2955 11.5095L11.9028 10.1265C11.7305 9.95548 11.5013 9.86133 11.2577 9.86133H7.75253C7.41697 9.86133 7.14425 9.59057 7.14425 9.25743V2.19139C7.14425 1.85824 7.41697 1.58749 7.75253 1.58749H9.38772C9.68653 1.58749 9.92838 1.3471 9.92838 1.05072C9.92838 0.754062 9.68625 0.51395 9.38772 0.51395H7.75253C6.82075 0.51395 6.06264 1.26632 6.06264 2.19139V9.2577C6.06264 10.1828 6.82075 10.9354 7.75253 10.9354H11.1876L12.6505 12.3878C12.8284 12.5641 13.0621 12.6524 13.2955 12.6524C13.529 12.6524 13.7627 12.5641 13.9406 12.3878L15.4035 10.9354H15.8737C15.6611 11.6516 15.5533 12.3948 15.5533 13.1535C15.5533 14.0758 15.7104 14.9689 16.0205 15.819H2.44801C1.22246 15.8187 0.225586 16.8084 0.225586 18.0249V28.3664C0.225586 29.5831 1.22246 30.5728 2.44801 30.5728L7.57998 30.5736L9.79343 32.7711C10.005 32.9812 10.2825 33.0859 10.5602 33.0859C10.838 33.0859 11.1155 32.9812 11.327 32.7711L13.5425 30.5728H18.6725C19.898 30.5728 20.8949 29.5831 20.8949 28.3667V23.8388C20.8949 23.5421 20.6527 23.3017 20.3542 23.3017C20.0557 23.3017 19.8136 23.5421 19.8136 23.8388V28.3667C19.8136 28.9909 19.3018 29.4993 18.6727 29.4993H13.5427C13.2529 29.4993 12.9807 29.6112 12.7759 29.8146L10.5583 32.0121L8.34455 29.8143C8.13973 29.6112 7.86757 29.4993 7.57802 29.4993H2.44801C1.81896 29.4993 1.30692 28.9912 1.30692 28.3667V18.0249C1.30692 17.4006 1.81868 16.8923 2.44773 16.8923H18.6725C19.3015 16.8923 19.8133 17.4003 19.8133 18.0249V21.5602C19.8133 21.8566 20.0554 22.097 20.3539 22.097C20.6527 22.097 20.8949 21.8566 20.8949 21.5602V20.5839C21.7172 20.8653 22.5783 21.0079 23.4647 21.0079C27.827 21.0079 31.376 17.4845 31.376 13.1535ZM18.6725 15.8187H17.1829C16.8196 14.9781 16.6349 14.0831 16.6349 13.1535C16.6349 12.39 16.7612 11.6457 17.0095 10.9351H18.8388C19.7703 10.9351 20.5285 10.1828 20.5285 9.25743V7.03124C21.4392 6.60032 22.4473 6.37274 23.4647 6.37274C27.2305 6.37274 30.2944 9.41453 30.2944 13.1535C30.2944 16.8923 27.2305 19.9341 23.4647 19.9341C22.5719 19.9341 21.7091 19.7666 20.8949 19.4371V18.0249C20.8949 16.8084 19.898 15.8187 18.6725 15.8187Z" fill="#0057FF"/>
<path d="M35.4938 21.9326H26.1753C25.3446 21.9326 24.6689 22.6036 24.6689 23.4282V29.3677C24.6689 30.1922 25.3446 30.8633 26.1753 30.8633H29.0271L30.2316 32.0591C30.3977 32.224 30.616 32.3065 30.8346 32.3065C31.0528 32.3065 31.2714 32.224 31.4378 32.0591L32.642 30.8633H35.4938C36.3243 30.8633 37.0002 30.1922 37.0002 29.3677V23.4284C37.0002 22.6036 36.3243 21.9326 35.4938 21.9326V21.9326ZM35.9188 29.3677C35.9188 29.6003 35.728 29.7897 35.4938 29.7897H32.5475C32.3193 29.7897 32.1053 29.8778 31.9442 30.0376L30.8346 31.1396L29.7249 30.0379C29.5638 29.8778 29.3495 29.7897 29.1216 29.7897H26.1753C25.9411 29.7897 25.7503 29.6003 25.7503 29.3677V23.4284C25.7503 23.1956 25.9408 23.0064 26.1753 23.0064H35.4938C35.728 23.0064 35.9188 23.1956 35.9188 23.4284V29.3677Z" fill="#0057FF"/>
<path d="M11.6186 23.2038L11.8355 23.0236L12.1326 22.7422C12.1938 22.6821 12.2872 22.5751 12.4132 22.4213C12.5392 22.2676 12.6346 22.1286 12.6994 22.0046C12.7642 21.8807 12.8254 21.7289 12.8826 21.5486C12.9398 21.3684 12.9684 21.1846 12.9684 20.9968C12.9684 20.4489 12.7566 19.9946 12.3332 19.6341C11.9098 19.274 11.3425 19.0938 10.6321 19.0938C9.99689 19.0938 9.49017 19.2364 9.11224 19.5216C8.73403 19.8071 8.54492 20.1071 8.54492 20.4224C8.54492 20.5951 8.60328 20.7283 8.72 20.8222C8.837 20.916 8.9669 20.9628 9.11028 20.9628C9.22307 20.9628 9.32295 20.9247 9.40937 20.8481C9.49607 20.7715 9.56986 20.6896 9.6299 20.6027C9.69022 20.5158 9.80329 20.4339 9.96911 20.357C10.1349 20.2807 10.342 20.2422 10.5906 20.2422C10.9447 20.2422 11.2275 20.3258 11.4385 20.4926C11.6492 20.6598 11.755 20.8951 11.755 21.1996C11.755 21.3776 11.7115 21.5503 11.6245 21.7172C11.5375 21.884 11.4505 22.0102 11.3636 22.0957C11.2766 22.1809 11.1461 22.2977 10.9724 22.4464L10.6433 22.7133C10.1896 23.1141 9.96266 23.7004 9.96266 24.472C9.96266 24.7096 10.0025 24.8729 10.0819 24.962C10.1613 25.0511 10.2954 25.0954 10.4845 25.0954C10.8625 25.0954 11.0516 24.9603 11.0516 24.6901C11.0516 24.3071 11.0819 24.0147 11.1425 23.8119C11.2028 23.6091 11.3616 23.4066 11.6186 23.2038V23.2038Z" fill="#0057FF"/>
<path d="M10.4971 25.9062C10.2852 25.9062 10.1152 25.9815 9.9867 26.1316C9.85792 26.2817 9.79395 26.462 9.79395 26.672C9.79395 26.8748 9.85792 27.053 9.9867 27.2068C10.1152 27.3608 10.2852 27.4377 10.4971 27.4377C10.7086 27.4377 10.8901 27.3608 11.0414 27.2068C11.1926 27.053 11.2684 26.8748 11.2684 26.672C11.2684 26.462 11.1926 26.2817 11.0414 26.1316C10.8901 25.9815 10.7086 25.9062 10.4971 25.9062Z" fill="#0057FF"/>
<path d="M22.9088 13.9896C22.9088 14.2752 23.1004 14.4175 23.4843 14.4175C23.6251 14.4175 23.7564 14.3802 23.8779 14.305C23.9991 14.23 24.06 14.125 24.06 13.9896C24.06 13.4941 24.0872 12.6685 24.1422 11.5122C24.1969 10.3562 24.2244 9.53029 24.2244 9.03503C24.2244 8.84728 24.154 8.69714 24.0129 8.58461C23.8717 8.47179 23.6955 8.41553 23.484 8.41553C23.2724 8.41553 23.0974 8.47012 22.9582 8.57876C22.8193 8.68767 22.75 8.83976 22.75 9.03503C22.75 9.53029 22.7764 10.3562 22.8294 11.5122C22.8822 12.6685 22.9088 13.4941 22.9088 13.9896Z" fill="#0057FF"/>
<path d="M23.4959 16.76C23.7148 16.76 23.9025 16.6831 24.0588 16.5291C24.2153 16.3753 24.2936 16.197 24.2936 15.9943C24.2936 15.7842 24.215 15.604 24.0588 15.4539C23.9025 15.3037 23.7148 15.2285 23.4959 15.2285C23.2681 15.2285 23.0773 15.3037 22.9241 15.4539C22.7707 15.604 22.6943 15.7842 22.6943 15.9943C22.6943 16.2046 22.7707 16.3848 22.9241 16.5349C23.0773 16.6851 23.2681 16.76 23.4959 16.76Z" fill="#0057FF"/>
<path d="M17.4926 2.76123H8.95668C8.65787 2.76123 8.41602 3.00162 8.41602 3.298C8.41602 3.59438 8.65815 3.83477 8.95668 3.83477H17.4926C17.7911 3.83477 18.0332 3.59438 18.0332 3.298C18.0332 3.00162 17.7911 2.76123 17.4926 2.76123Z" fill="#0057FF"/>
<path d="M18.0332 5.46255C18.0332 5.16589 17.7911 4.92578 17.4926 4.92578H8.95668C8.65787 4.92578 8.41602 5.16589 8.41602 5.46255C8.41602 5.75893 8.65815 5.99932 8.95668 5.99932H17.4926C17.7911 5.99932 18.0332 5.75893 18.0332 5.46255Z" fill="#0057FF"/>
<path d="M8.95668 7.08936C8.65787 7.08936 8.41602 7.32975 8.41602 7.62613C8.41602 7.92278 8.65815 8.16317 8.95668 8.16317H13.2955C13.594 8.16317 13.8361 7.92278 13.8361 7.62613C13.8361 7.32975 13.594 7.08936 13.2955 7.08936H8.95668Z" fill="#0057FF"/>
<path d="M28.8674 26.4285C28.8674 26.7377 28.6149 26.9884 28.3032 26.9884C27.9918 26.9884 27.7393 26.7377 27.7393 26.4285C27.7393 26.1193 27.9918 25.8687 28.3032 25.8687C28.6149 25.8687 28.8674 26.1193 28.8674 26.4285Z" fill="#0057FF"/>
<path d="M31.2698 26.4285C31.2698 26.7377 31.0173 26.9884 30.7056 26.9884C30.3941 26.9884 30.1416 26.7377 30.1416 26.4285C30.1416 26.1193 30.3941 25.8687 30.7056 25.8687C31.0173 25.8687 31.2698 26.1193 31.2698 26.4285Z" fill="#0057FF"/>
<path d="M33.7258 26.4285C33.7258 26.7377 33.4733 26.9884 33.1619 26.9884C32.8502 26.9884 32.5977 26.7377 32.5977 26.4285C32.5977 26.1193 32.8502 25.8687 33.1619 25.8687C33.4733 25.8687 33.7258 26.1193 33.7258 26.4285Z" fill="#0057FF"/>
</svg>
