<svg width="11" height="12" viewBox="0 0 11 12" fill="none" xmlns="http://www.w3.org/2000/svg">
<path d="M9.84955 1.09812C8.31672 -0.366039 5.82057 -0.366039 4.28936 1.09812L0.0423228 5.15174C0.0146601 5.17816 1.50434e-05 5.21391 1.50434e-05 5.25121C1.50434e-05 5.28852 0.0146601 5.32427 0.0423228 5.35069L0.642765 5.92423C0.670211 5.95033 0.707364 5.96498 0.746094 5.96498C0.784823 5.96498 0.821976 5.95033 0.849422 5.92423L5.09646 1.8706C5.62367 1.36701 6.325 1.09034 7.07027 1.09034C7.81553 1.09034 8.51686 1.36701 9.04245 1.8706C9.56967 2.3742 9.85932 3.0441 9.85932 3.75442C9.85932 4.46629 9.56967 5.13464 9.04245 5.63824L4.71406 9.77113L4.01273 10.441C3.35696 11.0674 2.29114 11.0674 1.63537 10.441C1.31806 10.1379 1.14395 9.73538 1.14395 9.30639C1.14395 8.8774 1.31806 8.47484 1.63537 8.17175L5.92959 4.0715C6.03861 3.96891 6.18181 3.9114 6.33477 3.9114H6.33639C6.48935 3.9114 6.63092 3.96891 6.73832 4.0715C6.84734 4.17564 6.90592 4.31241 6.90592 4.45852C6.90592 4.60307 6.84571 4.73985 6.73832 4.84243L3.22841 8.19196C3.20075 8.21838 3.1861 8.25413 3.1861 8.29143C3.1861 8.32874 3.20075 8.36448 3.22841 8.39091L3.82885 8.96445C3.8563 8.99055 3.89345 9.0052 3.93218 9.0052C3.97091 9.0052 4.00806 8.99055 4.03551 8.96445L7.54379 5.61337C7.8676 5.30406 8.04497 4.89372 8.04497 4.45697C8.04497 4.02021 7.86598 3.60832 7.54379 3.30056C6.875 2.66174 5.78802 2.6633 5.11924 3.30056L4.70267 3.70002L0.826641 7.40082C0.56357 7.65062 0.355039 7.94784 0.21314 8.27521C0.0712417 8.60259 -0.00120035 8.95362 1.50434e-05 9.30795C1.50434e-05 10.0276 0.294541 10.7037 0.826641 11.212C1.37827 11.7373 2.10075 12 2.82323 12C3.54572 12 4.2682 11.7373 4.8182 11.212L9.84955 6.40917C10.5899 5.70041 11 4.75695 11 3.75442C11.0016 2.75034 10.5916 1.80688 9.84955 1.09812Z" fill="white"/>
</svg>
