<svg width="22" height="15" viewBox="0 0 22 15" fill="none" xmlns="http://www.w3.org/2000/svg">
<path d="M0.460396 1.21696C3.47981 3.54148 8.77794 7.63102 10.3351 8.90615C10.5442 9.07825 10.7684 9.16574 11.0011 9.16574C11.2334 9.16574 11.4573 9.07907 11.6658 8.90779C13.2243 7.63142 18.5225 3.54148 21.5419 1.21696C21.7299 1.07252 21.7586 0.818627 21.6064 0.642035C21.2546 0.233971 20.73 0 20.1678 0H1.83449C1.27233 0 0.747728 0.233972 0.395943 0.642074C0.243747 0.818627 0.272407 1.07252 0.460396 1.21696Z" fill="#00A2FE"/>
<path d="M21.7342 2.47747C21.5717 2.40873 21.3806 2.43271 21.2454 2.5377C17.8969 5.11811 13.6233 8.42566 12.2788 9.52705C11.5241 10.1463 10.4767 10.1463 9.7203 9.52623C8.28712 8.35239 3.48803 4.64368 0.754617 2.53766C0.618535 2.43267 0.42698 2.40951 0.265848 2.47743C0.103855 2.54583 0 2.69312 0 2.85546V13.3334C0 14.2526 0.822207 15 1.83335 15H20.1667C21.1778 15 22 14.2526 22 13.3334V2.85546C22 2.69312 21.8961 2.54544 21.7342 2.47747Z" fill="#00A2FE"/>
</svg>
