<svg width="30" height="64" viewBox="0 0 30 64" fill="none" xmlns="http://www.w3.org/2000/svg">
<path d="M14.8359 63.827C13.5511 63.827 12.2352 63.5296 11.1134 62.688C10.0471 61.8919 9.33624 60.7301 8.7086 59.7135C8.01507 58.5885 7.31113 57.4389 6.65748 56.2596C4.55782 52.4996 2.9367 48.47 1.45602 44.6662C0.935876 43.319 0.337708 41.7915 0.112312 40.18C-0.166833 38.1906 0.127915 36.1925 0.413995 34.2608C0.524959 33.505 0.637656 32.7474 0.715677 31.9862C1.00349 29.1867 0.816244 26.3015 0.634193 23.5108C0.571776 22.5327 0.507624 21.5546 0.460811 20.5765C0.443473 20.1794 0.415742 19.5792 0.731297 19.0788C1.09367 18.5014 1.84441 18.204 2.59862 18.3404C3.27308 18.4612 3.92324 19.0176 4.27 19.518C4.35843 19.6457 4.45207 19.7717 4.54743 19.9012C5.06758 20.5923 5.69694 21.4496 5.78536 22.8634C5.7865 22.9896 5.73973 23.1114 5.6546 23.2038C5.56948 23.2962 5.45247 23.3522 5.32769 23.3603C5.20292 23.3683 5.07984 23.3279 4.98372 23.2472C4.88761 23.1665 4.8258 23.0517 4.81098 22.9264C4.73989 21.8048 4.24575 21.1382 3.77069 20.4926C3.66839 20.3543 3.56784 20.2196 3.47421 20.0831C3.20894 19.7017 2.76334 19.3693 2.43392 19.3115C2.10449 19.2538 1.72825 19.3395 1.56701 19.6072C1.4283 19.8259 1.43174 20.1689 1.44734 20.531C1.49242 21.5021 1.55484 22.4749 1.62073 23.446C1.80451 26.277 1.99353 29.2042 1.69705 32.0895C1.61729 32.8593 1.50459 33.6292 1.39016 34.4008C1.10234 36.3482 0.830137 38.1889 1.09021 40.0366C1.3 41.5325 1.87215 43.011 2.37669 44.3005C3.8435 48.0729 5.44726 52.0657 7.51744 55.7697C8.16069 56.9228 8.86465 58.0741 9.54604 59.1851C10.1581 60.186 10.7874 61.2148 11.7029 61.8989C13.9881 63.6048 17.2979 62.6285 19.0682 61.8989C20.7151 61.2174 22.2803 60.3498 23.7338 59.3129C24.5383 58.7407 25.4295 58.0268 25.9375 57.0838C26.3502 56.3139 26.5236 55.1748 25.974 54.363C25.934 54.3097 25.9051 54.2488 25.8892 54.184C25.8732 54.1192 25.8705 54.0517 25.8811 53.9858C25.8917 53.9199 25.9155 53.8568 25.951 53.8004C25.9865 53.744 26.033 53.6955 26.0877 53.6578C26.1423 53.6201 26.204 53.5939 26.269 53.581C26.3339 53.568 26.4008 53.5686 26.4655 53.5825C26.5303 53.5964 26.5916 53.6234 26.6457 53.6619C26.6997 53.7005 26.7455 53.7497 26.7802 53.8066C27.4737 54.8214 27.4737 56.2929 26.7958 57.5544C26.1924 58.676 25.1955 59.4791 24.2991 60.1195C22.7856 61.1972 21.1572 62.1005 19.4444 62.8122C18.2983 63.2741 16.5905 63.827 14.8359 63.827Z" fill="white"/>
<path d="M5.34204 33.7165C5.21236 33.7165 5.08798 33.6645 4.99629 33.5719C4.9046 33.4794 4.85309 33.3539 4.85309 33.223V6.46859C4.83957 5.17141 5.07508 3.88385 5.54662 2.67702C6.27829 0.850348 7.22494 0 8.5253 0C9.28053 0.000926056 10.0046 0.304097 10.5386 0.843014C11.0726 1.38193 11.373 2.11259 11.374 2.87474L12.6206 25.9006C12.624 26.0291 12.5775 26.1539 12.4911 26.2484C12.4046 26.3429 12.2851 26.3996 12.1579 26.4064C12.0306 26.4132 11.9058 26.3697 11.8099 26.285C11.714 26.2004 11.6546 26.0813 11.6444 25.9531L10.3978 2.90273C10.4013 2.65196 10.3554 2.40299 10.263 2.1702C10.1705 1.93741 10.0333 1.72541 9.85915 1.54646C9.68504 1.3675 9.47753 1.22513 9.24859 1.12758C9.01964 1.03002 8.77382 0.979206 8.5253 0.978074C7.94447 0.978074 7.18333 1.21253 6.44472 3.0392C6.01863 4.12849 5.80495 5.29055 5.81537 6.46159V33.223C5.81543 33.3512 5.76606 33.4744 5.67771 33.5665C5.58937 33.6586 5.46899 33.7124 5.34204 33.7165Z" fill="white"/>
<path d="M4.12937 36.3392C4.03446 36.3395 3.94156 36.3118 3.86202 36.2596C3.78248 36.2073 3.71977 36.1327 3.68165 36.045C3.64353 35.9573 3.63162 35.8603 3.64741 35.7658C3.66319 35.6714 3.70598 35.5836 3.7705 35.5134C4.30395 34.9247 4.6642 34.1976 4.81079 33.4137C4.82809 33.2866 4.8699 33.1642 4.93389 33.0533C5.00343 32.9431 5.11318 32.8649 5.23942 32.8358C5.36566 32.8066 5.4982 32.8288 5.60832 32.8976C5.71305 32.9633 5.78919 33.0667 5.82137 33.1868C5.85354 33.307 5.83937 33.435 5.7817 33.545C5.60447 34.5233 5.16013 35.4322 4.4987 36.1695C4.45255 36.2226 4.39575 36.2651 4.33209 36.2944C4.26842 36.3236 4.19932 36.3389 4.12937 36.3392Z" fill="white"/>
<path d="M17.9208 26.144C17.7917 26.144 17.6679 26.0925 17.5763 26.0007C17.4847 25.9089 17.4328 25.7843 17.4319 25.6541C17.418 23.0698 17.1302 19.4654 15.8298 16.9721C15.6559 16.5975 15.4215 16.2546 15.1363 15.9573C14.8434 15.7045 14.4988 15.5199 14.1272 15.4167C13.3247 15.1561 12.4743 15.0813 11.6392 15.1979C11.5139 15.2098 11.3889 15.1725 11.2902 15.0937C11.1914 15.015 11.1266 14.9008 11.1092 14.775C11.0918 14.6492 11.1231 14.5215 11.1966 14.4184C11.2701 14.3154 11.3802 14.2449 11.5039 14.2216C12.4844 14.0846 13.4829 14.1719 14.4254 14.4771C14.9318 14.6231 15.4001 14.88 15.7969 15.2294C16.1683 15.6025 16.4738 16.0368 16.7002 16.5137C18.0872 19.1837 18.4011 22.9543 18.4149 25.6488C18.4154 25.7794 18.3646 25.9048 18.2736 25.9976C18.1826 26.0904 18.0588 26.1431 17.9295 26.144H17.9208Z" fill="white"/>
<path d="M24.2632 28.9207C24.1778 28.921 24.0938 28.8987 24.0196 28.856C23.9454 28.8134 23.8835 28.7518 23.8402 28.6775C22.9993 27.2323 22.5849 25.6156 22.1844 24.0531C21.8376 22.7006 21.5099 21.4286 20.9326 20.3175C20.7586 19.9423 20.5243 19.5988 20.239 19.3009C19.945 19.0488 19.6001 18.8643 19.2282 18.7603C18.3492 18.4751 17.8568 18.3736 17.0852 18.4838C17.0205 18.4957 16.954 18.4943 16.8898 18.4796C16.8256 18.465 16.765 18.4374 16.7116 18.3985C16.6582 18.3596 16.6132 18.3103 16.5792 18.2534C16.5451 18.1965 16.5229 18.1333 16.5136 18.0676C16.5044 18.0018 16.5084 17.9348 16.5254 17.8707C16.5425 17.8065 16.5722 17.7465 16.6128 17.6942C16.6534 17.6419 16.704 17.5984 16.7616 17.5663C16.8193 17.5342 16.8828 17.5142 16.9483 17.5075C17.9886 17.3605 18.6717 17.5443 19.5264 17.8225C20.0338 17.9674 20.5029 18.2244 20.8996 18.5748C21.2704 18.9474 21.5753 19.3811 21.8012 19.8573C22.4323 21.0664 22.7895 22.4591 23.1345 23.8064C23.5194 25.3024 23.9165 26.8508 24.695 28.1806C24.7275 28.2363 24.7488 28.2979 24.7576 28.362C24.7665 28.426 24.7628 28.4911 24.7467 28.5537C24.7306 28.6163 24.7024 28.675 24.6638 28.7266C24.6252 28.7782 24.5768 28.8215 24.5216 28.8542C24.4435 28.9008 24.3539 28.9239 24.2632 28.9207Z" fill="white"/>
<path d="M25.6352 54.0181C25.5134 54.0181 25.3961 53.9722 25.3062 53.8893C25.2164 53.8064 25.1606 53.6925 25.1497 53.5702C25.0894 52.9072 25.1943 52.2396 25.4548 51.628C25.6177 51.2683 25.809 50.9225 26.027 50.5939C26.1206 50.4452 26.2143 50.2965 26.301 50.146C27.447 48.1566 27.5147 45.6721 27.5667 43.4815L27.6655 39.5779C27.6967 38.3531 27.7296 37.0881 27.8389 35.8371C27.8753 35.4346 27.9204 35.0305 27.9655 34.628C28.1388 33.1198 28.2931 31.6938 28.0348 30.2906C27.6239 28.0422 26.1709 26.1071 24.718 24.3189C24.5461 24.0672 24.3219 23.8564 24.0609 23.7012C23.7003 23.5385 23.2183 23.654 22.7155 23.7957C22.5906 23.8312 22.4569 23.8152 22.3437 23.7512C22.2306 23.6873 22.1473 23.5805 22.1121 23.4545C22.0769 23.3286 22.0927 23.1936 22.1562 23.0794C22.2196 22.9652 22.3253 22.8811 22.4502 22.8456C23.1073 22.6602 23.8043 22.5045 24.4614 22.8037C24.8633 23.0164 25.2102 23.3215 25.4739 23.6942C27.0066 25.5822 28.5411 27.6328 28.9953 30.1104C29.2797 31.6588 29.1063 33.2248 28.9364 34.7383C28.893 35.1355 28.848 35.5309 28.8115 35.9263C28.7006 37.1511 28.6694 38.3951 28.6382 39.6007L28.5393 43.5042C28.4838 45.6983 28.4145 48.4296 27.1436 50.6377C27.05 50.8004 26.9494 50.9596 26.8488 51.1188C26.6594 51.4035 26.4919 51.7024 26.3478 52.0129C26.1523 52.4738 26.0737 52.9765 26.1189 53.4757C26.1305 53.6058 26.0904 53.7352 26.0075 53.8356C25.9247 53.936 25.8057 53.9991 25.6768 54.0111L25.6352 54.0181Z" fill="white"/>
</svg>
