<svg width="26" height="25" viewBox="0 0 26 25" fill="none" xmlns="http://www.w3.org/2000/svg">
<path fill-rule="evenodd" clip-rule="evenodd" d="M17.9356 4.48233C18.4928 4.05893 19.1214 3.69768 19.7782 3.53072C20.577 3.34183 21.3198 3.39922 21.9262 3.84218C22.4679 4.24781 22.8243 4.82505 22.9955 5.57391C23.1019 6.28544 22.9987 7.06159 22.5721 7.6511C22.2035 8.2895 21.6309 8.65404 20.8918 8.9095L25.7454 11.7117L22.5285 17.2835L21.8817 16.9101L17.8605 23.8751L17.8604 23.875L17.4582 24.5716L0.646677 14.8655L1.4509 13.4725L1.45115 13.4727L5.07033 7.20407L4.4238 6.8308L7.6407 1.25896L12.6111 4.12862C12.4536 3.41745 12.567 2.71699 12.8731 2.05138C13.235 1.42454 13.7909 0.909705 14.4603 0.646156C16.0334 0.161404 17.3668 0.838381 17.8384 2.41075C18.0222 3.06307 18.0236 3.78805 17.9356 4.48233ZM15.3068 7.54228L8.12967 3.39854L6.52121 6.18446L13.6337 10.2908L15.2419 7.50521L16.5351 8.25184L14.9268 11.0375L22.0395 15.144L23.648 12.358L16.6646 8.32618L16.6645 8.32638L15.9532 7.91574L15.8886 7.87841L15.876 7.87111L15.3067 7.54245L15.3068 7.54228ZM12.8294 11.6838L6.36352 7.9507L2.74447 14.2191L9.21038 17.9522L12.8294 11.6838ZM14.1226 12.4304L20.5885 16.1635L16.9693 22.4321L16.3229 22.0589L16.323 22.0586L10.5036 18.6988L14.1226 12.4304ZM20.0803 5.09808C20.3949 5.00113 20.734 5.01116 20.9926 5.16048C21.2512 5.30981 21.4295 5.59843 21.4626 5.98901C21.4957 6.3796 21.4398 6.62588 21.2789 6.90447C21.1181 7.18306 20.8279 7.38699 20.4486 7.44661C19.545 7.66781 18.3898 7.27946 17.5737 6.90113C18.21 6.24699 19.1767 5.31928 20.0803 5.09808ZM15.8844 2.21128C15.6258 2.06196 15.2867 2.05193 14.9319 2.21853C14.6173 2.31548 14.3271 2.51941 14.1663 2.798C14.0054 3.07659 13.9739 3.42985 14.1119 3.78812C14.3721 4.68128 15.3507 5.52486 16.0864 6.04248C16.4396 5.13204 16.6549 3.86334 16.3946 2.97017C16.2566 2.6119 16.143 2.36061 15.8844 2.21128Z" fill="#0057FF"/>
</svg>
