<svg width="236" height="103" viewBox="0 0 236 103" fill="none" xmlns="http://www.w3.org/2000/svg">
<rect x="114" y="69" width="1" height="34" fill="white"/>
<path d="M148.986 81.2L146.284 89.208L143.582 81.2H142.294L139.536 89.166L136.89 81.2H135.448L138.724 91H140.222L142.896 83.174L145.57 91H147.04L150.316 81.2H148.986ZM157.978 87.332C157.978 85.05 156.452 83.51 154.31 83.51C152.168 83.51 150.586 85.092 150.586 87.29C150.586 89.502 152.182 91.084 154.576 91.084C155.808 91.084 156.83 90.664 157.502 89.88L156.76 89.012C156.214 89.614 155.486 89.908 154.618 89.908C153.148 89.908 152.098 89.04 151.93 87.738H157.95C157.964 87.612 157.978 87.444 157.978 87.332ZM154.31 84.644C155.612 84.644 156.55 85.526 156.69 86.772H151.93C152.07 85.512 153.022 84.644 154.31 84.644ZM163.778 83.51C162.728 83.51 161.804 83.902 161.188 84.7V80.612H159.844V91H161.132V89.824C161.734 90.664 162.686 91.084 163.778 91.084C165.948 91.084 167.53 89.558 167.53 87.29C167.53 85.022 165.948 83.51 163.778 83.51ZM163.666 89.908C162.252 89.908 161.174 88.872 161.174 87.29C161.174 85.708 162.252 84.686 163.666 84.686C165.094 84.686 166.172 85.708 166.172 87.29C166.172 88.872 165.094 89.908 163.666 89.908ZM176.199 91.112C178.789 91.112 179.993 89.824 179.993 88.326C179.993 84.728 174.057 86.226 174.057 83.832C174.057 82.978 174.771 82.278 176.437 82.278C177.305 82.278 178.271 82.53 179.125 83.076L179.587 81.956C178.775 81.396 177.585 81.088 176.437 81.088C173.861 81.088 172.685 82.376 172.685 83.888C172.685 87.528 178.621 86.016 178.621 88.41C178.621 89.264 177.893 89.922 176.199 89.922C174.939 89.922 173.693 89.446 172.965 88.788L172.447 89.88C173.231 90.608 174.701 91.112 176.199 91.112ZM185.594 89.6C185.314 89.824 184.936 89.95 184.544 89.95C183.802 89.95 183.382 89.502 183.382 88.704V84.686H185.51V83.58H183.382V81.956H182.038V83.58H180.778V84.686H182.038V88.76C182.038 90.258 182.892 91.084 184.39 91.084C184.992 91.084 185.608 90.916 186.014 90.566L185.594 89.6ZM193.211 83.58V87.416C193.211 89.012 192.315 89.88 190.915 89.88C189.641 89.88 188.913 89.152 188.913 87.696V83.58H187.569V87.85C187.569 90.034 188.843 91.084 190.761 91.084C191.811 91.084 192.735 90.65 193.281 89.88V91H194.555V83.58H193.211ZM202.77 80.612V84.7C202.154 83.902 201.23 83.51 200.18 83.51C198.01 83.51 196.428 85.022 196.428 87.29C196.428 89.558 198.01 91.084 200.18 91.084C201.272 91.084 202.224 90.664 202.826 89.824V91H204.114V80.612H202.77ZM200.292 89.908C198.864 89.908 197.786 88.872 197.786 87.29C197.786 85.708 198.864 84.686 200.292 84.686C201.706 84.686 202.784 85.708 202.784 87.29C202.784 88.872 201.706 89.908 200.292 89.908ZM207.329 82.152C207.861 82.152 208.239 81.76 208.239 81.256C208.239 80.78 207.847 80.402 207.329 80.402C206.811 80.402 206.419 80.794 206.419 81.284C206.419 81.774 206.811 82.152 207.329 82.152ZM206.657 91H208.001V83.58H206.657V91ZM213.745 91.084C215.971 91.084 217.595 89.502 217.595 87.29C217.595 85.078 215.971 83.51 213.745 83.51C211.519 83.51 209.881 85.078 209.881 87.29C209.881 89.502 211.519 91.084 213.745 91.084ZM213.745 89.908C212.317 89.908 211.239 88.872 211.239 87.29C211.239 85.708 212.317 84.686 213.745 84.686C215.173 84.686 216.237 85.708 216.237 87.29C216.237 88.872 215.173 89.908 213.745 89.908Z" fill="white"/>
<path d="M36.3265 11.1748C35.7593 5.8059 29.3943 3.24631 24.7939 3.24631C11.8118 3.24631 2.48487 16.4188 2.48487 18.479C2.48487 22.7242 5.69888 23.0988 5.69888 22.4745C5.69888 21.7877 5.06868 22.0375 5.06868 21.2259C5.06868 19.4779 15.0888 6.24291 27.1256 6.24291C31.474 6.24291 32.6714 8.42792 32.9235 11.0499C33.7427 19.6652 22.1471 33.7117 11.1186 39.0182C14.2066 26.2826 23.9746 13.5471 23.9746 12.9852C23.9746 12.361 22.6512 9.86379 20.1934 9.86379C18.4919 9.86379 7.21135 27.3439 7.21135 39.8297C7.21135 40.0795 7.21135 40.2667 7.21135 40.454C6.26606 40.7038 5.32076 40.8286 4.37546 40.8286C3.2411 40.8286 2.67392 39.8922 2.67392 39.143C2.67392 37.7696 0.53125 37.6447 0.53125 39.3303C0.53125 42.3893 3.05204 45.6981 6.20304 45.6981C6.7072 45.6981 7.33739 45.6356 7.96759 45.4484C8.97591 48.7571 10.7405 49.5062 10.7405 48.2577C10.7405 47.7582 10.2363 47.7582 10.2363 45.9478C10.2363 45.5732 10.2363 45.1986 10.2363 44.8241C20.5716 41.2032 38.0281 28.3428 36.3265 11.1748Z" fill="white"/>
<path d="M50.7837 37.832C50.7837 31.9013 56.0773 26.9069 56.0773 25.4086C56.0773 23.8479 53.8716 22.7242 52.9894 22.7242C50.2165 22.7242 39.188 37.5823 38.3057 37.5823C38.0537 37.5823 37.9906 37.3326 37.9906 37.1453C37.9906 32.9001 47.0025 19.5403 49.4603 19.5403C50.6576 19.5403 51.3509 20.3519 52.2962 21.4132C52.8003 21.975 53.3675 21.2259 53.0524 20.7889C51.9811 18.9784 49.9014 16.1067 46.6244 16.1067C42.0239 16.1067 33.0121 30.84 33.0121 35.4597C33.0121 38.0817 35.4699 40.891 37.2974 40.891C39.062 40.891 43.9145 32.588 49.7123 27.5312C48.9561 29.3417 47.6327 33.025 47.6327 36.0216C47.6327 39.7673 52.1071 41.7026 52.1071 40.1419C52.1071 39.8297 50.7837 39.9546 50.7837 37.832Z" fill="white"/>
<path d="M79.8447 17.2929C79.8447 15.7946 77.765 14.2963 76.9458 14.2963C76.8828 14.2963 76.7567 14.2963 76.6937 14.3587V14.2963C70.9589 18.1669 66.4215 24.8468 63.4595 30.0908C64.4678 27.0942 65.2871 24.4098 65.2871 23.2236C65.2871 19.353 60.4976 17.7299 60.4976 18.6039C60.4976 19.1033 60.8757 19.0409 60.8757 20.4767C60.8757 23.6606 55.33 36.521 55.33 37.7072C55.33 40.7037 59.5523 43.1385 59.5523 41.8275C59.5523 41.8275 59.5523 41.765 59.5523 41.7026C63.6486 30.2781 69.6355 23.286 73.1016 19.9773C71.6521 23.0988 70.3287 26.7821 70.3287 29.0295C70.3287 32.2758 74.1729 33.3371 74.1729 32.7128C74.1729 32.0261 73.6687 32.4631 73.6687 31.2145C73.6687 26.4699 79.8447 17.6674 79.8447 17.2929Z" fill="white"/>
<path d="M100.554 45.5108C100.113 45.6981 99.4197 45.6356 99.4197 45.6356C92.9287 45.6356 87.446 31.5891 86.1226 28.0306C93.3698 25.4086 102.571 19.79 102.571 16.7934C102.571 15.857 100.995 13.235 99.1046 13.235C98.0333 13.235 93.2438 16.0443 88.7694 19.353C92.4875 13.3598 95.9536 8.67764 95.9536 8.3655C95.9536 7.7412 94.4412 5.43133 91.7313 5.43133C89.8407 5.43133 76.1024 28.5301 76.1024 38.3314C76.1024 41.5778 79.7575 45.1986 79.7575 43.5131C79.7575 43.0136 79.1904 43.0136 79.1904 41.328C79.1904 38.4563 80.5768 34.5233 82.5304 30.4654C84.6101 35.4597 90.2819 47.3212 98.2854 47.3212C99.6718 47.3212 100.617 47.0715 101.247 46.6969C102.256 46.1975 101.436 45.0738 100.554 45.5108ZM99.4197 14.3587C99.4197 14.3587 92.5506 21.2259 85.8074 24.9092C92.4245 18.4166 99.4197 14.3587 99.4197 14.3587Z" fill="white"/>
<path d="M139.903 11.1748C139.336 5.8059 132.971 3.24631 128.37 3.24631C115.388 3.24631 106.061 16.4188 106.061 18.479C106.061 22.7242 109.275 23.0988 109.275 22.4745C109.275 21.7877 108.645 22.0375 108.645 21.2259C108.645 19.4779 118.665 6.24291 130.702 6.24291C135.051 6.24291 136.248 8.42792 136.5 11.0499C137.319 19.6652 125.724 33.7117 114.695 39.0182C117.783 26.2826 127.551 13.5471 127.551 12.9852C127.551 12.361 126.228 9.86379 123.77 9.86379C122.068 9.86379 110.788 27.3439 110.788 39.8297C110.788 40.0795 110.788 40.2667 110.788 40.454C109.843 40.7038 108.897 40.8286 107.952 40.8286C106.818 40.8286 106.25 39.8922 106.25 39.143C106.25 37.7696 104.108 37.6447 104.108 39.3303C104.108 42.3893 106.629 45.6981 109.78 45.6981C110.284 45.6981 110.914 45.6356 111.544 45.4484C112.552 48.7571 114.317 49.5062 114.317 48.2577C114.317 47.7582 113.813 47.7582 113.813 45.9478C113.813 45.5732 113.813 45.1986 113.813 44.8241C124.148 41.2032 141.605 28.3428 139.903 11.1748Z" fill="white"/>
<path d="M144.844 18.2293C144.025 18.2293 137.975 29.6538 137.975 36.7707C137.975 40.0795 141.63 41.8899 141.63 40.7037C141.63 39.9546 141.063 40.0795 141.126 38.7684C141.252 32.4631 149.067 22.2247 149.067 21.4132C149.067 20.6016 147.365 18.2293 144.844 18.2293ZM151.335 7.49149C150.201 7.49149 147.176 13.672 147.176 14.7333C147.176 15.7321 147.995 16.7934 148.688 16.7934C149.256 16.7934 154.486 12.0488 154.486 10.7378C154.486 8.74007 152.47 7.49149 151.335 7.49149Z" fill="white"/>
<path d="M167.976 19.7276C166.968 17.9796 165.141 15.42 162.746 15.42C157.137 15.42 145.92 32.0885 145.92 36.0216C145.92 40.017 149.575 42.0148 150.457 42.0148C151.843 42.0148 162.683 28.7798 167.22 24.0352C166.338 28.4677 162.116 36.084 157.452 42.202C154.679 43.3258 150.709 45.6356 147.18 48.3825C146.55 48.882 145.793 49.5687 145.352 50.1305C145.037 50.5675 144.974 51.0045 145.73 50.5051C147.495 49.2565 151.024 46.9467 155.12 45.0114C151.654 49.0068 148.188 51.8785 145.793 51.8785C143.273 51.8785 145.92 55 148.629 55C155.814 55 173.207 31.1521 173.207 24.5346C173.207 22.1623 169.678 19.7276 167.976 19.7276ZM150.016 39.5176C149.764 39.5176 149.701 39.3303 149.701 39.143C149.701 36.521 163.061 19.1657 165.078 19.1657C166.401 19.1657 166.968 20.4143 167.22 21.2259C161.359 26.1578 150.583 39.5176 150.016 39.5176Z" fill="white"/>
<path d="M181.031 18.2293C180.212 18.2293 174.162 29.6538 174.162 36.7707C174.162 40.0795 177.817 41.8899 177.817 40.7037C177.817 39.9546 177.25 40.0795 177.313 38.7684C177.439 32.4631 185.254 22.2247 185.254 21.4132C185.254 20.6016 183.552 18.2293 181.031 18.2293ZM187.522 7.49149C186.388 7.49149 183.363 13.672 183.363 14.7333C183.363 15.7321 184.182 16.7934 184.876 16.7934C185.443 16.7934 190.673 12.0488 190.673 10.7378C190.673 8.74007 188.657 7.49149 187.522 7.49149Z" fill="white"/>
<path d="M201.039 10.1135C203.434 6.11805 205.135 3.4336 205.135 3.24631C205.135 2.62202 204.127 0 200.976 0C199.904 0 197.195 4.30761 194.296 10.3632C193.035 10.3632 191.775 10.3632 190.451 10.3632C186.355 10.3632 187.048 9.67651 186.166 9.67651C185.221 9.67651 184.591 10.7378 184.591 12.361C184.591 13.9841 186.481 14.6708 188.75 14.6708C189.947 14.6708 191.145 14.6708 192.342 14.6084C188.372 23.5982 184.591 34.6481 184.591 40.8286C184.591 44.4495 188.372 48.445 188.372 46.6345C188.372 45.9478 187.616 45.9478 187.616 43.8252C187.616 35.21 193.665 22.9115 198.707 14.109C210.24 12.798 218.81 9.61408 218.81 8.05335C218.81 6.99205 215.155 9.2395 201.039 10.1135Z" fill="white"/>
<path d="M211.287 37.832C211.287 31.9013 216.581 26.9069 216.581 25.4086C216.581 23.8479 214.375 22.7242 213.493 22.7242C210.72 22.7242 199.692 37.5823 198.809 37.5823C198.557 37.5823 198.494 37.3326 198.494 37.1453C198.494 32.9001 207.506 19.5403 209.964 19.5403C211.161 19.5403 211.855 20.3519 212.8 21.4132C213.304 21.975 213.871 21.2259 213.556 20.7889C212.485 18.9784 210.405 16.1067 207.128 16.1067C202.528 16.1067 193.516 30.84 193.516 35.4597C193.516 38.0817 195.974 40.891 197.801 40.891C199.566 40.891 204.418 32.588 210.216 27.5312C209.46 29.3417 208.136 33.025 208.136 36.0216C208.136 39.7673 212.611 41.7026 212.611 40.1419C212.611 39.8297 211.287 39.9546 211.287 37.832Z" fill="white"/>
<path d="M232.282 4.80704C230.643 4.80704 217.535 22.849 217.535 35.647C217.535 43.7628 220.938 46.0727 220.938 44.2622C220.938 43.7628 220.434 43.7003 220.434 41.8899C220.434 26.9069 236 8.67764 236 7.99092C236 7.3042 234.677 4.80704 232.282 4.80704Z" fill="white"/>
<mask id="mask0_2_5942" style="mask-type:alpha" maskUnits="userSpaceOnUse" x="0" y="0" width="236" height="55">
<path d="M36.3265 11.1748C35.7593 5.8059 29.3943 3.24631 24.7939 3.24631C11.8118 3.24631 2.48487 16.4188 2.48487 18.479C2.48487 22.7242 5.69888 23.0988 5.69888 22.4745C5.69888 21.7877 5.06868 22.0375 5.06868 21.2259C5.06868 19.4779 15.0888 6.24291 27.1256 6.24291C31.474 6.24291 32.6714 8.42792 32.9235 11.0499C33.7427 19.6652 22.1471 33.7117 11.1186 39.0182C14.2066 26.2826 23.9746 13.5471 23.9746 12.9852C23.9746 12.361 22.6512 9.86379 20.1934 9.86379C18.4919 9.86379 7.21135 27.3439 7.21135 39.8297C7.21135 40.0795 7.21135 40.2667 7.21135 40.454C6.26606 40.7038 5.32076 40.8286 4.37546 40.8286C3.2411 40.8286 2.67392 39.8922 2.67392 39.143C2.67392 37.7696 0.53125 37.6447 0.53125 39.3303C0.53125 42.3893 3.05204 45.6981 6.20304 45.6981C6.7072 45.6981 7.33739 45.6356 7.96759 45.4484C8.97591 48.7571 10.7405 49.5062 10.7405 48.2577C10.7405 47.7582 10.2363 47.7582 10.2363 45.9478C10.2363 45.5732 10.2363 45.1986 10.2363 44.8241C20.5716 41.2032 38.0281 28.3428 36.3265 11.1748Z" fill="white"/>
<path d="M50.7837 37.832C50.7837 31.9013 56.0773 26.9069 56.0773 25.4086C56.0773 23.8479 53.8716 22.7242 52.9894 22.7242C50.2165 22.7242 39.188 37.5823 38.3057 37.5823C38.0537 37.5823 37.9906 37.3326 37.9906 37.1453C37.9906 32.9001 47.0025 19.5403 49.4603 19.5403C50.6576 19.5403 51.3509 20.3519 52.2962 21.4132C52.8003 21.975 53.3675 21.2259 53.0524 20.7889C51.9811 18.9784 49.9014 16.1067 46.6244 16.1067C42.0239 16.1067 33.0121 30.84 33.0121 35.4597C33.0121 38.0817 35.4699 40.891 37.2974 40.891C39.062 40.891 43.9145 32.588 49.7123 27.5312C48.9561 29.3417 47.6327 33.025 47.6327 36.0216C47.6327 39.7673 52.1071 41.7026 52.1071 40.1419C52.1071 39.8297 50.7837 39.9546 50.7837 37.832Z" fill="white"/>
<path d="M79.8447 17.2929C79.8447 15.7946 77.765 14.2963 76.9458 14.2963C76.8828 14.2963 76.7567 14.2963 76.6937 14.3587V14.2963C70.9589 18.1669 66.4215 24.8468 63.4595 30.0908C64.4678 27.0942 65.2871 24.4098 65.2871 23.2236C65.2871 19.353 60.4976 17.7299 60.4976 18.6039C60.4976 19.1033 60.8757 19.0409 60.8757 20.4767C60.8757 23.6606 55.33 36.521 55.33 37.7072C55.33 40.7037 59.5523 43.1385 59.5523 41.8275C59.5523 41.8275 59.5523 41.765 59.5523 41.7026C63.6486 30.2781 69.6355 23.286 73.1016 19.9773C71.6521 23.0988 70.3287 26.7821 70.3287 29.0295C70.3287 32.2758 74.1729 33.3371 74.1729 32.7128C74.1729 32.0261 73.6687 32.4631 73.6687 31.2145C73.6687 26.4699 79.8447 17.6674 79.8447 17.2929Z" fill="white"/>
<path d="M100.554 45.5108C100.113 45.6981 99.4197 45.6356 99.4197 45.6356C92.9287 45.6356 87.446 31.5891 86.1226 28.0306C93.3698 25.4086 102.571 19.79 102.571 16.7934C102.571 15.857 100.995 13.235 99.1046 13.235C98.0333 13.235 93.2438 16.0443 88.7694 19.353C92.4875 13.3598 95.9536 8.67764 95.9536 8.3655C95.9536 7.7412 94.4412 5.43133 91.7313 5.43133C89.8407 5.43133 76.1024 28.5301 76.1024 38.3314C76.1024 41.5778 79.7575 45.1986 79.7575 43.5131C79.7575 43.0136 79.1904 43.0136 79.1904 41.328C79.1904 38.4563 80.5768 34.5233 82.5304 30.4654C84.6101 35.4597 90.2819 47.3212 98.2854 47.3212C99.6718 47.3212 100.617 47.0715 101.247 46.6969C102.256 46.1975 101.436 45.0738 100.554 45.5108ZM99.4197 14.3587C99.4197 14.3587 92.5506 21.2259 85.8074 24.9092C92.4245 18.4166 99.4197 14.3587 99.4197 14.3587Z" fill="white"/>
<path d="M139.903 11.1748C139.336 5.8059 132.971 3.24631 128.37 3.24631C115.388 3.24631 106.061 16.4188 106.061 18.479C106.061 22.7242 109.275 23.0988 109.275 22.4745C109.275 21.7877 108.645 22.0375 108.645 21.2259C108.645 19.4779 118.665 6.24291 130.702 6.24291C135.051 6.24291 136.248 8.42792 136.5 11.0499C137.319 19.6652 125.724 33.7117 114.695 39.0182C117.783 26.2826 127.551 13.5471 127.551 12.9852C127.551 12.361 126.228 9.86379 123.77 9.86379C122.068 9.86379 110.788 27.3439 110.788 39.8297C110.788 40.0795 110.788 40.2667 110.788 40.454C109.843 40.7038 108.897 40.8286 107.952 40.8286C106.818 40.8286 106.25 39.8922 106.25 39.143C106.25 37.7696 104.108 37.6447 104.108 39.3303C104.108 42.3893 106.629 45.6981 109.78 45.6981C110.284 45.6981 110.914 45.6356 111.544 45.4484C112.552 48.7571 114.317 49.5062 114.317 48.2577C114.317 47.7582 113.813 47.7582 113.813 45.9478C113.813 45.5732 113.813 45.1986 113.813 44.8241C124.148 41.2032 141.605 28.3428 139.903 11.1748Z" fill="white"/>
<path d="M144.844 18.2293C144.025 18.2293 137.975 29.6538 137.975 36.7707C137.975 40.0795 141.63 41.8899 141.63 40.7037C141.63 39.9546 141.063 40.0795 141.126 38.7684C141.252 32.4631 149.067 22.2247 149.067 21.4132C149.067 20.6016 147.365 18.2293 144.844 18.2293ZM151.335 7.49149C150.201 7.49149 147.176 13.672 147.176 14.7333C147.176 15.7321 147.995 16.7934 148.688 16.7934C149.256 16.7934 154.486 12.0488 154.486 10.7378C154.486 8.74007 152.47 7.49149 151.335 7.49149Z" fill="white"/>
<path d="M167.976 19.7276C166.968 17.9796 165.141 15.42 162.746 15.42C157.137 15.42 145.92 32.0885 145.92 36.0216C145.92 40.017 149.575 42.0148 150.457 42.0148C151.843 42.0148 162.683 28.7798 167.22 24.0352C166.338 28.4677 162.116 36.084 157.452 42.202C154.679 43.3258 150.709 45.6356 147.18 48.3825C146.55 48.882 145.793 49.5687 145.352 50.1305C145.037 50.5675 144.974 51.0045 145.73 50.5051C147.495 49.2565 151.024 46.9467 155.12 45.0114C151.654 49.0068 148.188 51.8785 145.793 51.8785C143.273 51.8785 145.92 55 148.629 55C155.814 55 173.207 31.1521 173.207 24.5346C173.207 22.1623 169.678 19.7276 167.976 19.7276ZM150.016 39.5176C149.764 39.5176 149.701 39.3303 149.701 39.143C149.701 36.521 163.061 19.1657 165.078 19.1657C166.401 19.1657 166.968 20.4143 167.22 21.2259C161.359 26.1578 150.583 39.5176 150.016 39.5176Z" fill="white"/>
<path d="M181.031 18.2293C180.212 18.2293 174.162 29.6538 174.162 36.7707C174.162 40.0795 177.817 41.8899 177.817 40.7037C177.817 39.9546 177.25 40.0795 177.313 38.7684C177.439 32.4631 185.254 22.2247 185.254 21.4132C185.254 20.6016 183.552 18.2293 181.031 18.2293ZM187.522 7.49149C186.388 7.49149 183.363 13.672 183.363 14.7333C183.363 15.7321 184.182 16.7934 184.876 16.7934C185.443 16.7934 190.673 12.0488 190.673 10.7378C190.673 8.74007 188.657 7.49149 187.522 7.49149Z" fill="white"/>
<path d="M201.039 10.1135C203.434 6.11805 205.135 3.4336 205.135 3.24631C205.135 2.62202 204.127 0 200.976 0C199.904 0 197.195 4.30761 194.296 10.3632C193.035 10.3632 191.775 10.3632 190.451 10.3632C186.355 10.3632 187.048 9.67651 186.166 9.67651C185.221 9.67651 184.591 10.7378 184.591 12.361C184.591 13.9841 186.481 14.6708 188.75 14.6708C189.947 14.6708 191.145 14.6708 192.342 14.6084C188.372 23.5982 184.591 34.6481 184.591 40.8286C184.591 44.4495 188.372 48.445 188.372 46.6345C188.372 45.9478 187.616 45.9478 187.616 43.8252C187.616 35.21 193.665 22.9115 198.707 14.109C210.24 12.798 218.81 9.61408 218.81 8.05335C218.81 6.99205 215.155 9.2395 201.039 10.1135Z" fill="white"/>
<path d="M211.287 37.832C211.287 31.9013 216.581 26.9069 216.581 25.4086C216.581 23.8479 214.375 22.7242 213.493 22.7242C210.72 22.7242 199.692 37.5823 198.809 37.5823C198.557 37.5823 198.494 37.3326 198.494 37.1453C198.494 32.9001 207.506 19.5403 209.964 19.5403C211.161 19.5403 211.855 20.3519 212.8 21.4132C213.304 21.975 213.871 21.2259 213.556 20.7889C212.485 18.9784 210.405 16.1067 207.128 16.1067C202.528 16.1067 193.516 30.84 193.516 35.4597C193.516 38.0817 195.974 40.891 197.801 40.891C199.566 40.891 204.418 32.588 210.216 27.5312C209.46 29.3417 208.136 33.025 208.136 36.0216C208.136 39.7673 212.611 41.7026 212.611 40.1419C212.611 39.8297 211.287 39.9546 211.287 37.832Z" fill="white"/>
<path d="M232.282 4.80704C230.643 4.80704 217.535 22.849 217.535 35.647C217.535 43.7628 220.938 46.0727 220.938 44.2622C220.938 43.7628 220.434 43.7003 220.434 41.8899C220.434 26.9069 236 8.67764 236 7.99092C236 7.3042 234.677 4.80704 232.282 4.80704Z" fill="white"/>
</mask>
<g mask="url(#mask0_2_5942)">
<path d="M107.094 -3.4375H239.438V49.8438L101.938 60.1562L107.094 -3.4375Z" fill="#0057FF"/>
</g>
</svg>
