<svg width="12" height="14" viewBox="0 0 12 14" fill="none" xmlns="http://www.w3.org/2000/svg">
<path d="M8.54598 1.33766C9.95186 2.58734 9.95186 4.61346 8.54598 5.86314C7.14009 7.11281 4.86069 7.11281 3.4548 5.86314C2.04892 4.61346 2.04892 2.58734 3.4548 1.33766C4.86069 0.0879665 7.14009 0.0879665 8.54598 1.33766Z" fill="white"/>
<path d="M8.54598 1.33766C9.95186 2.58734 9.95186 4.61346 8.54598 5.86314C7.14009 7.11281 4.86069 7.11281 3.4548 5.86314C2.04892 4.61346 2.04892 2.58734 3.4548 1.33766C4.86069 0.0879665 7.14009 0.0879665 8.54598 1.33766Z" fill="white"/>
<path d="M11.2592 9.88612C8.13365 7.90515 3.86635 7.90515 0.740784 9.88612C0.277049 10.1798 0 10.676 0 11.2138V14.0004H12V11.2138C12 10.676 11.7229 10.1798 11.2592 9.88612Z" fill="white"/>
<path d="M11.2592 9.88612C8.13365 7.90515 3.86635 7.90515 0.740784 9.88612C0.277049 10.1798 0 10.676 0 11.2138V14.0004H12V11.2138C12 10.676 11.7229 10.1798 11.2592 9.88612Z" fill="white"/>
</svg>
