<svg width="15" height="16" viewBox="0 0 15 16" fill="none" xmlns="http://www.w3.org/2000/svg">
<path d="M14.6637 12.6552L12.3472 10.1784C11.8858 9.6871 11.1217 9.70203 10.6442 10.2127L9.47715 11.4601C9.40342 11.4167 9.3271 11.3713 9.24686 11.3231C8.50987 10.8866 7.50117 10.2882 6.43972 9.15259C5.37513 8.01458 4.8149 6.93454 4.4053 6.14613C4.36207 6.0626 4.32066 5.98207 4.27976 5.90559L5.06304 5.06945L5.44813 4.65725C5.92634 4.14586 5.93953 3.32921 5.4792 2.83648L3.16268 0.359373C2.70235 -0.132666 1.93791 -0.117739 1.45969 0.39365L0.80682 1.09563L0.824661 1.11457C0.605744 1.4132 0.42281 1.75763 0.286676 2.12905C0.161186 2.4826 0.0830571 2.81998 0.0473322 3.15805C-0.258549 5.86906 0.900248 8.34671 4.04507 11.7088C8.39218 16.3559 11.8954 16.0049 12.0465 15.9877C12.3757 15.9457 12.6911 15.8616 13.0117 15.7285C13.3561 15.5847 13.678 15.3894 13.9572 15.1558L13.9715 15.1694L14.6329 14.477C15.1101 13.9657 15.1238 13.1487 14.6637 12.6552Z" fill="#00A2FE"/>
</svg>
