<svg width="29" height="28" viewBox="0 0 29 28" fill="none" xmlns="http://www.w3.org/2000/svg">
<path d="M14.0098 28C21.7456 28 28.0168 21.732 28.0168 14C28.0168 6.26801 21.7456 0 14.0098 0C6.27404 0 0.00292969 6.26801 0.00292969 14C0.00292969 21.732 6.27404 28 14.0098 28Z" fill="url(#paint0_linear_227_11671)"/>
<path d="M20.3854 8.32275L7.61594 13.1294C7.12571 13.3161 7.16072 14.0044 7.66263 14.1444L12.1214 15.3927C12.1798 15.4044 12.2382 15.4394 12.2848 15.4744L17.549 19.7094C18.0509 20.1294 18.8213 19.8611 18.9497 19.2194L20.9573 8.78942C21.0274 8.47442 20.7005 8.20608 20.3854 8.32275Z" fill="#F5F9FD"/>
<path d="M13.0129 19.0938L14.612 17.3667L12.721 15.8496L12.3125 19.2572C12.546 19.3389 12.8144 19.2922 13.0129 19.0938Z" fill="#A9C9DD"/>
<path d="M18.1251 10.5418L10.7715 15.0218L11.9387 18.8368C11.9971 19.0468 12.1605 19.1868 12.3356 19.2568L12.7441 15.8501L18.2651 10.7168C18.3468 10.6235 18.2418 10.4718 18.1251 10.5418Z" fill="#C8DAEA"/>
<defs>
<linearGradient id="paint0_linear_227_11671" x1="14.0098" y1="1.10824" x2="14.0098" y2="27.6209" gradientUnits="userSpaceOnUse">
<stop stop-color="#39B0E3"/>
<stop offset="1" stop-color="#1D93D2"/>
</linearGradient>
</defs>
</svg>
