<svg width="28" height="28" viewBox="0 0 28 28" fill="none" xmlns="http://www.w3.org/2000/svg">
<circle cx="14" cy="14" r="14" fill="url(#paint0_linear_227_11678)"/>
<path d="M13.8771 6.23148C9.5905 6.43393 6.20774 9.97502 6.22074 14.2318C6.2247 15.5283 6.54025 16.7521 7.0969 17.8334L6.24225 21.9484C6.19601 22.171 6.39841 22.3659 6.62134 22.3136L10.6865 21.3582C11.7309 21.8743 12.904 22.1723 14.1455 22.1911C18.5268 22.2575 22.1801 18.8067 22.3167 14.4624C22.4631 9.80556 18.5883 6.00892 13.8771 6.23148ZM18.7277 18.6281C17.5372 19.809 15.9543 20.4594 14.2707 20.4594C13.2849 20.4594 12.3411 20.24 11.4654 19.8073L10.8992 19.5276L8.4069 20.1133L8.93152 17.5871L8.65261 17.0454C8.19802 16.1623 7.96751 15.2073 7.96751 14.2071C7.96751 12.5371 8.62315 10.967 9.81366 9.78608C10.9935 8.61574 12.6022 7.95482 14.2708 7.95482C15.9544 7.95485 17.5373 8.60519 18.7278 9.78604C19.9183 10.9669 20.5739 12.537 20.5739 14.207C20.5739 15.8621 19.9076 17.4578 18.7277 18.6281Z" fill="white"/>
<path d="M18.1786 15.9385L16.6193 15.4944C16.4143 15.436 16.1936 15.4937 16.0442 15.6447L15.6629 16.03C15.5021 16.1925 15.2582 16.2447 15.0454 16.1593C14.3077 15.8632 12.7561 14.4948 12.3598 13.8103C12.2455 13.6128 12.2644 13.366 12.4048 13.1858L12.7377 12.7586C12.8681 12.5912 12.8956 12.3664 12.8094 12.173L12.1534 10.7012C11.9962 10.3487 11.5421 10.2461 11.2454 10.495C10.8102 10.8601 10.2939 11.4149 10.2311 12.0295C10.1204 13.1132 10.589 14.4793 12.3607 16.1195C14.4076 18.0145 16.0467 18.2649 17.114 18.0084C17.7193 17.863 18.203 17.28 18.5083 16.8026C18.7165 16.4771 18.5521 16.0449 18.1786 15.9385Z" fill="white"/>
<defs>
<linearGradient id="paint0_linear_227_11678" x1="19.8333" y1="-0.777778" x2="9.33333" y2="29.1667" gradientUnits="userSpaceOnUse">
<stop stop-color="#1BD741"/>
<stop offset="0.0001" stop-color="#1BD741"/>
<stop offset="1" stop-color="#15A933"/>
</linearGradient>
</defs>
</svg>
