<svg width="13" height="13" viewBox="0 0 13 13" fill="none" xmlns="http://www.w3.org/2000/svg">
<path d="M11.4679 10.6916C11.4708 10.6873 11.4751 10.6829 11.478 10.6786C12.4283 9.54833 13 8.09163 13 6.5C13 4.90837 12.4283 3.45167 11.4795 2.32143C11.4766 2.31708 11.4722 2.31417 11.4693 2.30982C11.4533 2.29096 11.4388 2.27355 11.4229 2.25614C11.4171 2.24888 11.4113 2.24308 11.4055 2.23583L11.346 2.16763L11.3445 2.16618C11.3228 2.14152 11.2996 2.11685 11.2778 2.09219L11.2763 2.09074C11.2299 2.04141 11.1835 1.99208 11.1356 1.9442L11.1342 1.94275L11.0645 1.8731L11.0602 1.86875C11.0384 1.84699 11.0166 1.82667 10.9949 1.80636C10.9876 1.79911 10.9804 1.79185 10.9717 1.7846C10.9571 1.77009 10.9426 1.75703 10.9281 1.74397C10.9238 1.73962 10.918 1.73527 10.9136 1.72946C9.7558 0.655804 8.2048 0 6.5 0C4.7952 0 3.2442 0.655804 2.08493 1.72946C2.08058 1.73382 2.07478 1.73817 2.07042 1.74397C2.05592 1.75703 2.04141 1.77154 2.0269 1.78605C2.01964 1.7933 2.01239 1.80056 2.00368 1.80781C1.98192 1.82813 1.96016 1.84989 1.93839 1.8702L1.93404 1.87455L1.8644 1.9442L1.86295 1.94565C1.81507 1.99353 1.76864 2.04286 1.72221 2.09219L1.72076 2.09364C1.69754 2.1183 1.67578 2.14297 1.65402 2.16763L1.65257 2.16908C1.63225 2.19085 1.61194 2.21406 1.59308 2.23728C1.58728 2.24453 1.58147 2.25033 1.57567 2.25759C1.55971 2.275 1.5452 2.29386 1.52924 2.31127C1.52634 2.31563 1.52199 2.31853 1.51908 2.32288C0.571652 3.45167 0 4.90837 0 6.5C0 8.09163 0.571652 9.54833 1.52054 10.6786C1.52344 10.6829 1.52779 10.6873 1.53069 10.6916L1.57567 10.7453C1.58147 10.7526 1.58728 10.7584 1.59308 10.7656L1.65257 10.8338C1.65257 10.8353 1.65402 10.8353 1.65402 10.8367C1.67578 10.8614 1.69754 10.8861 1.72076 10.9093L1.72221 10.9107C1.76864 10.96 1.81507 11.0094 1.8615 11.0573L1.86295 11.0587C1.88616 11.0819 1.90792 11.1051 1.93114 11.1269L1.93549 11.1313C1.98337 11.1791 2.0327 11.2256 2.08203 11.2705C3.2442 12.3442 4.7952 13 6.5 13C8.2048 13 9.7558 12.3442 10.9151 11.2705C10.9645 11.2252 11.0129 11.1788 11.0602 11.1313L11.0645 11.1269C11.0877 11.1037 11.1109 11.0819 11.1327 11.0587L11.1342 11.0573C11.182 11.0094 11.2285 10.96 11.2734 10.9107L11.2749 10.9093C11.2967 10.8846 11.3199 10.8614 11.3416 10.8367C11.3416 10.8353 11.3431 10.8353 11.3431 10.8338C11.3634 10.8121 11.3837 10.7888 11.4026 10.7656C11.4084 10.7584 11.4142 10.7526 11.42 10.7453C11.4364 10.7278 11.4523 10.7099 11.4679 10.6916ZM11.5273 8.62266C11.3271 9.09565 11.0631 9.53382 10.741 9.93136C10.3782 9.61786 9.98159 9.34582 9.55848 9.12031C9.72679 8.43984 9.83125 7.69263 9.85882 6.90625H11.9408C11.8973 7.49967 11.758 8.07567 11.5273 8.62266ZM11.9408 6.09375H9.85882C9.83125 5.30737 9.72679 4.56016 9.55848 3.87969C9.98359 3.65335 10.3797 3.38058 10.741 3.06864C11.4411 3.93043 11.8599 4.98634 11.9408 6.09375ZM8.62266 1.47266C9.19866 1.71641 9.72243 2.05301 10.1838 2.47667C9.91579 2.70489 9.62729 2.90791 9.32199 3.08315C9.0942 2.43025 8.80257 1.86295 8.46306 1.40882C8.51674 1.42913 8.57042 1.45089 8.62266 1.47266ZM7.30815 11.6376C7.17467 11.7421 7.04118 11.8219 6.90625 11.8756V9.18415C7.48195 9.22432 8.04809 9.35252 8.58493 9.56429C8.46451 9.92121 8.32522 10.2506 8.16418 10.548C7.91172 11.0181 7.61574 11.3939 7.30815 11.6376ZM8.16418 2.45201C8.32377 2.75089 8.46451 3.08025 8.58493 3.43571C8.04809 3.64748 7.48195 3.77568 6.90625 3.81585V1.12589C7.03973 1.17958 7.17467 1.25792 7.30815 1.36384C7.61574 1.60614 7.91172 1.98192 8.16418 2.45201ZM6.90625 8.3702V6.90625H9.04632C9.0231 7.54754 8.9433 8.16998 8.80982 8.76049L8.80547 8.7779C8.19658 8.54701 7.55626 8.40955 6.90625 8.3702ZM6.90625 6.09375V4.6298C7.57076 4.58917 8.20915 4.44844 8.80547 4.2221L8.80982 4.23951C8.9433 4.83002 9.0231 5.451 9.04632 6.09375H6.90625ZM6.09375 6.90625V8.3702C5.42924 8.41083 4.79085 8.55156 4.19453 8.7779L4.19018 8.76049C4.0567 8.16998 3.9769 7.549 3.95368 6.90625H6.09375ZM3.95368 6.09375C3.9769 5.45246 4.0567 4.83002 4.19018 4.23951L4.19453 4.2221C4.79085 4.44844 5.42779 4.58917 6.09375 4.6298V6.09375H3.95368ZM6.09375 9.18415V11.8741C5.96027 11.8204 5.82533 11.7421 5.69185 11.6362C5.38426 11.3939 5.08683 11.0166 4.83438 10.5465C4.67478 10.2477 4.53404 9.9183 4.41362 9.56283C4.95335 9.351 5.51484 9.22478 6.09375 9.18415ZM6.09375 3.81585C5.51805 3.77568 4.95191 3.64748 4.41507 3.43571C4.53549 3.07879 4.67478 2.74944 4.83583 2.45201C5.08828 1.98192 5.38426 1.60469 5.6933 1.36239C5.82679 1.25792 5.96027 1.17813 6.0952 1.12444V3.81585H6.09375ZM4.37734 1.47266C4.43103 1.45089 4.48326 1.42913 4.53694 1.40882C4.19743 1.86295 3.9058 2.43025 3.67801 3.08315C3.37333 2.90904 3.0846 2.70592 2.81618 2.47667C3.27757 2.05301 3.80134 1.71641 4.37734 1.47266ZM1.47266 4.37734C1.67288 3.90435 1.93694 3.46618 2.25904 3.06864C2.62031 3.38058 3.01641 3.65335 3.44152 3.87969C3.27321 4.56016 3.16875 5.30737 3.14118 6.09375H1.05915C1.10268 5.50034 1.24196 4.92433 1.47266 4.37734ZM1.05915 6.90625H3.14118C3.16875 7.69263 3.27321 8.43984 3.44152 9.12031C3.01841 9.34582 2.62179 9.61786 2.25904 9.93136C1.55888 9.06957 1.14006 8.01366 1.05915 6.90625ZM4.37734 11.5273C3.80134 11.2836 3.27757 10.947 2.81618 10.5233C3.0846 10.2941 3.37333 10.0924 3.67801 9.91685C3.9058 10.5698 4.19743 11.1371 4.53694 11.5912C4.48326 11.5709 4.42958 11.5491 4.37734 11.5273ZM8.62266 11.5273C8.56897 11.5491 8.51674 11.5709 8.46306 11.5912C8.80257 11.1371 9.0942 10.5698 9.32199 9.91685C9.62667 10.091 9.9154 10.2941 10.1838 10.5233C9.72499 10.9452 9.19687 11.2849 8.62266 11.5273Z" fill="white"/>
</svg>
